<svg xmlns="http://www.w3.org/2000/svg" width="14.073mm" height="28.357mm" viewBox="0 0 14.073 28.357"><g fill="#211e1e" fill-rule="evenodd"><path d="M6.76 26.44c-.0909-.0854-.19155-.16123-.28939-.22738-.21773-.0565-.38861-.26458-.64354-.15985-.16123.0827-.23565.23289-.30317.38861-.0868.19706-.16261.40101-.3955.46991-.0565.18052-.0565.37896-.18052.53054-.0937.25494-.0841.54708-.27423.76481-.23565.12265-.41479-.113-.61461-.113-.27285-.17087-.50022-.42581-.76481-.65181.0703-.32797.13781-.67386.24529-1.0004.16399-.50437.42168-.96188.92742-1.2306.68902-.113 1.5972-.33073 2.1167.36793.13229.20809.39687.41617.45337.68075l.0854.0854c-.0207.0427-.0124.0717.007.0965.0331.0427.0937.0717.0882.13091.0469.20671.0937.44373.0469.66146-.0565.0565-.14194 0-.14194-.0661.0138-.28939-.15158-.53192-.36242-.7276"/><path d="M12.57 11.43c-.39688-.0193-.82269-.11299-1.2003-.24529-.46302-.14193-.99219-.19017-1.4745-.22737-.12264.0193-.19844-.14194-.32108-.0661-.35967-.22738-.60634.0468-1.0211-.0758-.12953-.49609-.11713-1.0211-.0992-1.5406.0166-.42995.0372-.86265-.0152-1.2747.0772-.0276.22738-.0469.30317-.0648.0661-.01.12265.008.17914.0179.50161-.25493 1.068-.0758 1.5889-.15985.29215-.16123.32109.18879.56638.226.31281.6146.69039-.18879 1.1341-.0469.0951-.1323.45476.10473.38861-.19844-.01-.19844-.15158-.27423-.30317-.36794-.13229-.20808-.30179-.4644-.19844-.71933-.01-.19844-.15158-.15986-.25493-.32109-.33073-.10335-.7469-.01-1.0873.0951-.22599-.21773-.43545.0179-.68074-.0289-.56638.14194-1.2099.10335-1.7859.20808l-.0758-.0469c.12265-.16123.20809-.35967.14194-.56775-.18052-.44373.0289-.93569.0841-1.4263-.0275-.59669.0482-1.1534-.0372-1.768-.16124-.88884-.1888-1.881-.3018-2.8167h-.0386c-.0758.29352-.13229.6146-.226.85989-.0675.87919-.32246 1.6922-.32246 2.5618.41617.36793-.226.77583.0193 1.181l-.22737 2.0891c-.15021-.0193-.36794-.01-.53882-.0469-.12264.0841-.27423.10335-.40652.15985-.17914.20808-.52916.15158-.77445.16123-.0661-.28388.0565-.61461 0-.8406.0565-.1323.0758-.29353.15985-.38861.10473-.24529-.0937-.42444-.0937-.65181 0-.37759.0661-.70005.20809-1.0487.0661-.16123-.0193-.32108-.0951-.45337-.12264-.76619-.37758-1.542-.56637-2.3165-.0951-.38723-.35967-.73725-.34038-1.152l-.0193.0179c-.0386-.0565-.0193-.14056-.0662-.15021-.0758.01-.0841.0565-.113.113l-.0289-.0289.0289 1.7019c.0662.46302-.14193.88746 0 1.294-.01.51125.15986.94533-.0951 1.3808.01.14194.15158.0661.20808.18879.01.20809-.17914.34038-.30179.49196 0 .26459-.0758.55673-.0193.79375.01.38723-.11438.8034-.0661 1.2099-.0565.0276-.13229.0648-.20808.0179-.65319.35967-1.4566.35003-2.1263.66146-.11438.0289-.23703.10473-.27423.19844.44372-.0661.81166-.24529 1.3133-.113l.0661-.0661c.28388-.01.53882-.0854.84198 0 .0937.15986.25494-.0565.339.113.0469.46716.0344.89435 0 1.3188-.0358.43683-.0937.86816-.13229 1.3381-.0937.0841-.24529.0276-.36794.0469-.35002-.16949-.79375-.33072-1.1534-.0758-.0758.0937-.25494.0386-.27423.18879-.17915.0951.0951.42582-.226.49196-.14194.25494-.44511.52917-.22738.84061.15985.16123.0276.43546.29215.54846.11437.01.24666-.22738.36931-.0469.14194-.18052.40652-.18879.60496-.27423.0951-.10335.26458-.15158.36794-.22737h.63389l.0469.0482c0 .28112-.0634.62012-.0868.93844-.004.0675-.007.13367-.007.19706-.0289.34038.10335.77446-.22738 1.0018-.01.42443-.0469.8971-.22737 1.2843-.0565.01-.12127 0-.13229-.0648-.0372.008-.0937-.0193-.113.0276-.10336-.0937-.226.0372-.32109.0854-.47266-.10473-.81304.29214-1.3133.17914v.0951c-.32246.12264-.65319.21635-1.0032.27423-.2067.01-.50987.0841-.71796.0179-.0758.0386-.14193.11438-.113.20946.49196.13229 1.2196.13229 1.7391 0 .51952-.36931 1.1148.0937 1.6633.0841.0758-.01.19017-.0758.24529 0-.0276.14056-.0482.2825-.062.42582-.0717.74414.011 1.5103-.25907 2.1842-.19844.14194-.46302.10335-.67937.20808l-.0675-.0469c-.2067.0937-.40514-.0193-.63252.113-.35002.0758-.71796-.24667-1.0404.0276-.47266.20808-.39687.71934-.59531 1.0873-.0317.10887-.17777.1571-.226.24254-.022.0427-.022.0923.0276.16398.13367.17088.30317.44373.53882.45338.113-.0937.29352-.0841.38723-.17915.18052.0289.28387-.113.40652-.20808.14194-.0469.31281-.0372.43546-.13229.40652.0193.75654-.0758 1.1534-.0661v.0386c-.25494.12264-.27423.41479-.38723.64216-.0896.42168-.34589.79375-.35691 1.1948-.003.0675.003.13505.0165.20395-.38998.53192-.62012 1.141-.93707 1.7033-.18465.32521-.39825.63527-.68902.90537-.0909.33486-.2508.66696-.36793 1.0032-.12816.36656-.20395.74001-.0854 1.1341-.19982.20671.226.35829.113.63252.40652.0468.79375.12265 1.1713.0289.23702-.17088.48232.0565.70969.113.19844-.0661.33073-.14194.50023-.27423l.0193-.43408c.0138-.35002.0813-.79237.15434-1.1989.0317-.17777.0634-.34727.0909-.50161-.0565-.0469-.13229-.0758-.22599-.0661-.0386-.10335-.0193-.28387.0758-.38722.36104-.1571.37758-.60634.48507-.95223.001-.007.004-.0138.006-.0207.24667-.39687.29352-.86954.50161-1.2664.0193-.10474.18879-.19844.113-.27423l.0524-.34451.0896-.61047c.0469-.19844.23703-.38723.1323-.58567.10335-.22738.14745-.48231.23564-.71382.0331-.0841.073-.16813.12402-.2453.36794-.10335.71796-.0661 1.068-.20808.19844.0289.37759-.12264.59532-.13229.15158-.0565.31281-.008.45337.0469.14194.0482.30317.0482.42581-.0469.19844-.14056.1695.14194.29353.19981.0124.12678.0248.25494.0386.38172.0606.55259.12678 1.1024.15021 1.6399l-.0951.20808c.007.0207.0138.04.0193.062.18879.59669.28112 1.2664.42305 1.9086.0317.14607.0661.29076.10611.4327.0565.23702.0386.52917.26459.68075-.0276.226.19843.46302-.113.58567-.0565.0744-.0551.14194-.0331.20946.0331.10335.11438.20395.10887.31971.0565.16949.20808.35966.29214.51951.19017.35003.64355.39688.72899.81305.113.11299.24529-.01.35829-.0469.0758.24529.27423.0937.40652.113.19844-.0854.20808-.28387.32246-.42581.0372.0386.10335.01.15985.0193.18879-.25494.15985-.51953.47267-.7469.0841-.14883.11438-.3638.0923-.565-.0124-.11713-.0441-.23013-.0923-.32384-.39688.01-.32109-.5581-.68075-.53881-.113-.0854-.17915-.21773-.17915-.36794-.27423-.0482-.35002-.34037-.40652-.56775-.0289-.0331-.051-.0717-.0675-.11024-.11162-.2825.0138-.72347-.41479-.74828-.0386-.113-.10335-.20808-.113-.34037-.0482-.0276-.0482-.0758-.0193-.113-.0648-.23151-.10198-.46716-.12403-.70418-.0593-.62976-.0179-1.2788-.14469-1.9086-.0193-.0965-.0441-.19293-.0717-.28801.13229-.0661.1888-.22738.22738-.35967l-.0289-.0289c.12265-.0276.25494-.17914.41617-.0841.36931-.23702.88883-.19843 1.2857-.30317.73725-.0276 1.5117-.27423 2.344-.24529-1.3808-.16123-2.7602-.0565-4.1782-.17914-.13229-.43546-.12264-.83234-.17915-1.2954.0565-.0289-.0289-.14194.0661-.13229.0579-.31281.12678-.62425.0193-.8971-.0331-.0813-.0813-.16123-.15297-.23565-.0179-.13229-.0744-.33073.0386-.43408.51952.18879 1.1341.2825 1.7019.32108.31281-.18741.53467.15848.7276.34727.0221.022.0441.0427.0662.0579.50712-.0909.92604.0772 1.4194-.0565.0124-.003.0248-.006.0358-.008l.0482-.0951c-.10474-.19843-.26459-.41616-.25632-.63389.16123-.339-.0565-.71796-.24529-.9729-.85025-.54846-1.8052.0951-2.7699-.113-.21635.0372-.46302.0276-.65181-.0758-.0565-.35002-.01-.7841.0386-1.1534-.12265-.23564-.17639-.49471-.19568-.76343-.0276-.37483.01-.76895.0152-1.1452l.0482-.0661c.66145-.1502 1.2003.18053 1.8135.14194.0951-.0758.0854-.13229.18053-.20808h1.6536c.18879-.113.40652.0193.59531-.0179.22738-.011.46303.0179.68076-.0289.16123.0854.33073.0289.5016.0469-.5016-.0565-1.0597-.12265-1.5034-.38723zm-6.8254 7.9334c-.18879.0951-.0937-.20808-.27423-.22738H4.7717c.0854-.20808.0193-.42443.0854-.61322.01-.20809.113-.49196-.0854-.68075 0-.23565.22738-.34038.37759-.49196-.003-.15297-.001-.30042.007-.44511.011-.21911.0345-.43546.0689-.66973.27423-.0276.56775.21773.74689-.0661.0951-.14194.2453-.20809.40653-.113.19843.15985.45337.20808.7276.19844.0234.21084.0124.42994-.008.65043-.0565.59807-.18741 1.214.0744 1.7598.0482.17915.0482.32109.0482.50023-.49196.13229-1.0873-.10335-1.4759.19844zm1.5971-6.2728c-.0193.0661-.062.12402-.12126.17777l-.0289 1.1052c.113.226-.0193.47267.0289.72761-.67111.0758-1.3904.0193-2.0423.13229-.01-.46302.01-.83096.0662-1.2664.0179-.27698.0234-.57464.0234-.87643 0-.32659-.004-.66284-.004-.98668.226-.0468.50988-.01.64217-.24529.31144.36794.7469.0565 1.1066.0648-.0289.30317.14194.59669.0662.90813.0841.0951.26458.0468.27423.20808-.003.0165-.006.0344-.011.051zm-.0372-2.3757-.65181.0469c-.0386-.0565-.0565-.12265-.113-.15986-.1323.0937-.29353 0-.43546 0-.21773.0179-.46302.0469-.65182.0662-.12264-.26458.15986-.41617.0661-.70004.0496-.226.0662-.46165.0689-.7028.006-.40377-.0262-.82269-.003-1.2251.25494.01.43408-.28388.69867-.30179.22737.12265.3886.44373.68075.32108l.0758-.11437c.0482.0854.13229.18052.24667.16123.0262.3762.0234.76894.022 1.1576-.001.44786-.001.88745.0441 1.2898.0565.0565.008.12403-.0482.16123"/></g></svg>