<svg xmlns="http://www.w3.org/2000/svg" viewBox="-0.31 -10.26 152 152" role="img" aria-labelledby="favicon-title">
  <title id="favicon-title">VTES Chile</title>
  <style>
    path { fill: #0d0d0d; }
    @media (prefers-color-scheme: dark) {
      path { fill: #f5efdf; }
    }
  </style>
  <path d="M132.37 131.27c-11.804-1.0616-25.196-1.8439-39.031-2.28-24.398-.76908-47.608-.1218-74.253 2.0707-3.3864.27867-3.3649.28083-3.6793-.36861-.31812-.65715-.20922-1.2265.34273-1.7919.529-.54185.5595-1.2975.0734-1.8179-.24437-.2616-.26961-.26872-.8228-.23202-.31388.0208-.69446.004-.84573-.0365-.48661-.13149-.52932-.32956-.52917-2.4541 0-2.2738.0204-2.3428.8042-2.7347l.508-.254.0228-1.9046c.016-1.3307-.008-1.9781-.0782-2.1486-.13092-.31606-.65754-.55689-1.2231-.55933-.33971-.0015-.50368-.05393-.76885-.24602-.54627-.39572-.65764-.7216-.6897-2.0182-.0353-1.4287.0693-1.9606.47354-2.4081.42744-.47312.64999-.56342 1.6116-.6539 1.055-.09927 1.4562-.3291 1.4562-.83412 0-.29035-.41228-.98839-1.0081-1.7069-.6673-.80467-.8241-1.2329-.74304-2.0295.0788-.7743.19396-1.0331.77722-1.7468.65963-.8071.88929-1.4191.88929-2.3699 0-.71313-.32267-1.8474-1.2165-4.2765-1.2044-3.2731-1.8352-4.56-4.9178-10.033-4.2507-7.5471-6.5118-12.659-8.0013-18.091-1.0451-3.8112-1.4768-6.8416-1.4752-10.357.001-2.7974.21206-4.6783.80175-7.1543 1.3711-5.7573 4.5917-11.093 9.2305-15.292 4.6426-4.2029 10.606-6.7055 18.017-7.5612 1.8906-.21832 2.878-.26801 5.4264-.27311 4.3556-.0087 8.7559.6027 12.404 1.7235 2.9834.91666 9.5434 3.6115 14.774 6.0693 1.0012.47042 1.8326.81879 1.8475.77416s-.0598-.49218-.16603-.99457c-.27994-1.3237-.27866-3.6416.003-4.9731.53305-2.5221 1.7971-5.0328 3.2947-6.5439 1.3518-1.364 2.9886-2.379 5.0088-3.106.71585-.25763.8111-.32123.98514-.65778.13217-.25559.31613-2.3789.4222-4.873.0487-1.1458.0388-1.3758-.0591-1.3758-.50328 0-3.7093.21089-5.8299.38312-1.4188.11522-2.6256.2095-2.6817.2095s-.21928-.098637-.36255-.21919c-.31536-.26536-.32203-.3918-.0912-1.7281.24255-1.404.2274-2.0893-.0942-4.2594-.11929-.80507-.0963-.90343.27617-1.1815.20622-.15396.26043-.15362 2.2794.01464 2.2396.18664 3.9317.30716 5.5607.39606l1.0372.057-.001-.66705c-.001-.71218-.14872-3.0295-.38947-6.128-.0814-1.0478-.12147-2.0091-.089-2.1363.11361-.44557.367-.4935 2.0371-.38532 1.1274.07303 1.8911.07255 3.1174-.002 1.4075-.08552 1.6497-.08193 1.8158.02688.21306.1396.39623.69172.32867.99068-.13238.58575-.61903 8.1576-.53002 8.2466.0706.070607 3.0822-.10402 6.0968-.35352 3.3976-.28119 3.3016-.34226 2.937 1.8679-.21039 1.2757-.21006 1.9081.002 3.3443.0927.62865.16873 1.2596.16894 1.4022.00042.27784-.22763.58327-.50005.66973-.0921.02924-1.3602-.044065-2.818-.1629-2.2431-.18285-5.199-.37937-5.7729-.3838-.15085-.00117-.15609.060781-.10197 1.2053.0314.66358.11491 2.0256.18563 3.0268.11698 1.6563.14676 1.8482.33056 2.1296.15486.23712.30671.34269.65073.45241.79133.25239 2.6255 1.2085 3.4502 1.7985 1.9701 1.4094 3.6984 3.5385 4.6153 5.6858 1.0963 2.5672 1.3896 5.9757.68474 7.9585-.13438.37802-.0764.60189.15595.60189.0534 0 1.1632-.51852 2.4661-1.1523 5.3103-2.5829 11.213-5.0557 14.396-6.0308 7.0644-2.1643 15.974-2.3652 23.194-.52313 4.456 1.1368 8.3151 3.021 11.599 5.6632.92882.74732 3.0268 2.8313 3.9745 3.948 4.1303 4.8667 6.3904 10.13 7.0902 16.51.13502 1.231.13156 4.8079-.006 6.1383-.49623 4.8014-1.9383 9.9553-4.2912 15.336-1.2944 2.9603-2.6677 5.6091-5.964 11.503-2.4093 4.3078-3.3606 6.3744-4.5244 9.8289-.71816 2.1317-.84799 2.9552-.62893 3.9887.12662.59738.35295 1.0262.79062 1.4979.1991.21458.43086.52349.51503.68647.165.3195.26817 1.4726.17581 1.9649-.0291.15486-.34308.79276-.69784 1.4176s-.66302 1.2719-.68503 1.4379c-.0738.55726.30954.74397 1.8439.89792.55579.05576.94614.2707 1.1842.65205.16137.25845.17071.38864.14739 2.0539-.023 1.6397-.0396 1.8078-.2136 2.1608-.2329.47253-.55875.67548-1.0845.67548-.55258 0-1.0475.16373-1.2004.39712-.094.14347-.14665.58669-.19673 1.6562-.0667 1.4233-.0634 1.4715.1297 1.8995.15015.33284.27776.47977.52722.60704.18101.0923.37473.268.43047.39035.1589.34874.13991 4.043-.0224 4.3568-.17719.34265-.65535.51203-1.2844.45499-.48682-.0441-.51544-.0357-.72708.21587-.25242.29999-.42639.98394-.34887 1.3716.0345.17277.15077.32744.33621.44745.73623.47648.7155 1.5999-.0412 2.2335-.27081.22677-.21138.22726-3.0179-.0251zm.33741-2.8433c.25976-.3087.42214-.83163.34887-1.1235-.13151-.52399.13776-.48279-6.0223-.92133-32.515-2.3147-65.824-2.4782-97.788-.48015-3.9623.24769-10.032.67261-10.355.72491-.41924.0679-.63263.45438-.57731 1.0455.0318.33939.098.51414.25387.67004l.21091.21091 4.1329-.31102c19.25-1.4486 34.734-1.9836 54.764-1.8922 18.494.0845 33.326.70022 51.096 2.1212 1.886.15082 3.4961.25825 3.5782.23873.082-.0195.24295-.14695.35757-.28317zm-2.7876-7.0069c.74786-.3307 1.2191-.91922 1.4464-1.8062.26603-1.0384.0382-1.9313-.65189-2.5547-1.2057-1.0893-3.1441-.9289-4.0519.33519-.48034.66885-.62325 1.5087-.39026 2.2933.46756 1.5745 2.1732 2.3846 3.6477 1.7325zm-106.6-.16581c1.2677-.56077 1.8991-2.1007 1.4018-3.4188-.21246-.56306-.79662-1.2107-1.3142-1.457-.91112-.43358-2.3739-.16992-3.1482.56744-.66706.63523-.8705 2.0083-.43616 2.9437.62205 1.3397 2.1794 1.9474 3.4968 1.3647zm97.802-.47654c.94536-.46253 1.5194-1.4666 1.4516-2.5391-.15857-2.5086-3.3915-3.4095-4.8142-1.3417-.79995 1.1627-.53023 2.9282.56422 3.6931.75598.52837 1.9398.60776 2.7984.18769zm-88.843-.10946c.82081-.36309 1.3987-1.3232 1.4761-2.4525.0384-.55967.0165-.72424-.14681-1.1038-.35779-.8317-1.2847-1.4491-2.2827-1.5205-1.0082-.07214-1.8576.3463-2.4085 1.1865-1.0122 1.5438-.19348 3.5836 1.6218 4.0407.44724.11264 1.3151.0376 1.7402-.15038zm80.054-.41066c.59081-.30215.97147-.78569 1.1994-1.5235.49111-1.59-.0415-2.7866-1.4798-3.3247-1.3211-.49429-2.7371.05987-3.3538 1.3125-.75728 1.5382.0874 3.3363 1.7654 3.758.55775.14016 1.3428.0468 1.8688-.2222zm-71.641.10654c1.9737-.52552 2.6284-2.9743 1.1819-4.4208-1.3606-1.3606-3.7012-.89766-4.3673.86379-.55673 1.4722.38097 3.2198 1.9225 3.583.46825.11032.7746.10402 1.2628-.026zm62.558-.55121c.55768-.24669 1.0865-.7838 1.3502-1.3714.2015-.44901.22766-.60075.20064-1.164-.0502-1.046-.55201-1.8264-1.4788-2.2998-.35537-.1815-.52322-.21014-1.2166-.20759-.89416.0033-1.3053.15058-1.8489.66234-.73048.68771-.93721 1.9774-.48894 3.0503.1655.39609.77328 1.0439 1.1686 1.2456.70905.36173 1.6126.39473 2.3139.0845zm-53.875.0662c.79365-.16822 1.3656-.56209 1.7788-1.2248 1.315-2.1095-.85909-4.7106-3.2039-3.8333-1.6305.61003-2.2521 2.767-1.1946 4.1449.35624.46418.62085.65462 1.176.84632.53025.18311.83.197 1.4438.0669zm9.3905-.24214c.76608-.21947 1.4088-.9674 1.5982-1.8597.56168-2.6468-2.5584-4.4062-4.4533-2.5113-1.7385 1.7385-.39963 4.6889 2.0412 4.4983.2794-.0218.64563-.0791.81385-.12729zm35.64-.0963c.55129-.23716 1.2038-.94688 1.3923-1.5145.0784-.23604.13955-.67747.13715-.99009-.0131-1.7048-1.0136-2.6535-2.6853-2.5462-2.289.1469-3.4174 2.7219-1.9218 4.3854.80309.89322 1.9645 1.1443 3.0777.66544zm-26.633-.1906c.56616-.25919 1.0248-.72347 1.3-1.3159.29646-.63818.30365-1.6125.0168-2.2702-.23611-.5413-.76331-1.0433-1.3218-1.2588-.62619-.24151-1.7292-.22467-2.2552.03444-1.561.76889-1.9941 2.8312-.87036 4.1441.77911.91022 2.0206 1.1745 3.1306.66632zm17.714-.0521c.47027-.20738 1.0712-.75998 1.2931-1.1891.085-.16446.19259-.50736.23897-.762.28666-1.5739-.84944-3.0241-2.4396-3.114-1.5061-.08522-2.6816 1.0531-2.7763 2.6884-.0503.86848.11461 1.3767.5975 1.8415.19714.18976.45346.3939.56961.45363.71058.36542 1.7934.40053 2.5166.0816zm-8.8048-.13395c1.0962-.53566 1.7674-2.0384 1.4286-3.1982-.11439-.39153-.24514-.59688-.62672-.9843-.64563-.65552-1.2282-.88092-2.1449-.82979-1.5421.08601-2.4437 1.0563-2.4435 2.6295.00013 1.2334.82517 2.3007 2.008 2.5975.49409.12399 1.2794.0292 1.7786-.21472zm47.747-8.5084c.13014-.04948.26538-.1352.30054-.1905.13254-.20843.0553-.72038-.23239-1.5399-.57474-1.6373-.69267-2.6398-.38846-3.302.0856-.18627.63768-.94125 1.2269-1.6777.58925-.73649 1.1506-1.4945 1.2475-1.6844.42521-.83349 1.0803-2.6409 3.4609-9.5495 2.478-7.191 3.876-11.06 5.5061-15.24 1.1573-2.9673 1.4939-3.9046 1.8544-5.1647 1.2228-4.2734 1.5265-9.0614.84579-13.335-.76195-4.7834-2.6197-8.7752-5.448-11.707-1.1315-1.1727-1.9303-1.847-3.0534-2.5774-2.4669-1.6045-5.2774-2.5557-8.7207-2.9516-1.2049-.13853-4.1629-.11582-5.7448.0441-2.4851.25123-7.3786 1.1746-7.3786 1.3922 0 .07425.4398.28237 1.1853.5609 8.3175 3.1074 13.766 8.304 15.501 14.784.5127 1.9149.6277 3.397.39001 5.0268-.0951.65193-.21565 1.5663-.26794 2.032-.21287 1.896-.87067 4.7008-1.5587 6.6463-1.0241 2.8956-2.0308 5.0465-4.4782 9.5673-3.8356 7.0852-5.1571 10.183-6.4657 15.155-.37577 1.4279-.38826 1.5139-.34408 2.3707.0655 1.2704.44907 2.2973 1.405 3.7616.54674.83753.69427 1.2815.74765 2.2501.0671 1.2179-.0473 1.6241-.70698 2.5089-.99694 1.3372-1.1033 1.84-.43413 2.0518.26642.08433 3.7095.36534 8.3615.68244 2.8172.19203 2.902.1943 3.1889.08519zm-91.496-.41669c1.2806-.09026 3.0332-.20756 3.8947-.26065.86149-.05309 1.6326-.13187 1.7135-.17506.30979-.1653.2994-.81051-.0238-1.4781-.0997-.20604-.39125-.6887-.64779-1.0726-.70835-1.0599-.83052-1.45-.69442-2.2173.10302-.58082.27757-.95079.84754-1.7964.98523-1.4616 1.4297-2.6323 1.4896-3.9233.038-.81851.0166-.98634-.26892-2.1167-1.1946-4.7286-2.5807-8.0744-5.9269-14.307-2.8759-5.3561-4.0119-7.9646-4.868-11.178-.93423-3.5066-1.2698-7.3036-.89408-10.118 1.1101-8.315 6.4513-14.719 14.958-17.936.59355-.22441.96142-.40878.96142-.48184 0-.14251-1.2834-.42493-4.191-.92222-3.1257-.53461-4.4544-.68894-6.3923-.74254-2.4026-.06645-4.2293.11595-6.1606.61515-7.5815 1.9597-12.289 8.3642-13.283 18.07-.13565 1.3252-.13453 4.6824.002 6.1383.34779 3.7075.85588 5.7489 2.7185 10.922.92634 2.5728 1.8358 5.2117 4.3184 12.531 3.1996 9.4326 3.8554 11.226 4.4041 12.043.17997.26809.68208.86858 1.1158 1.3344 1.3774 1.4794 1.7987 2.1136 1.8984 2.8577.0519.38722-.0287.64052-.76107 2.3913-.50641 1.2107-.51378 1.7815-.0258 1.9958.24965.1096 2.9284.02942 5.8153-.17407zm66.138-.93392c.12367-.05684.29257-.22907.37532-.38274.22693-.42139.0657-.84411-.59789-1.5672-.70861-.77216-.84977-1.178-.7767-2.2333.0451-.65126.10054-.86485.36318-1.3991.3746-.762 1.3544-1.7915 2.3194-2.4371.77151-.51615 1.5113-1.2947 1.8079-1.9025.12364-.25338.36783-1.13.56126-2.0149.66861-3.0586 1.7181-6.7955 3.0316-10.795.77054-2.3461 1.0604-3.0844 2.7936-7.1166 2.4764-5.761 3.4629-8.6662 3.9659-11.679.22034-1.32.22186-4.4397.003-5.4352-.87217-3.9609-3.1744-6.5789-7.8482-8.9246-2.6249-1.3174-5.1307-2.0987-8.2973-2.5872-1.127-.17383-4.7491-.24618-5.9475-.1188-2.2498.23915-4.713.77359-5.435 1.1793-.57837.32496-.88286.77233-.97648 1.4347-.0842.59565-.21988.84344-.99749 1.8217-.92709 1.1663-1.1709 1.8676-1.5357 4.4174-.57517 4.0199-.99416 11.174-.70262 11.997.0828.23367.18042.33555.38671.40363.66761.22033 6.6615-.34379 15.204-1.4309 4.0642-.51721 4.0561-.51686 4.4278-.19258.19394.16916.18914.547-.0244 1.9233-.63146 4.0702-.64776 6.3139-.0744 10.245.13584.93127.24698 1.7796.24698 1.8851s-.12383.32481-.27517.48731l-.27516.29546-4.0217-.50759c-7.2221-.91153-11.353-1.3381-13.674-1.412-1.5281-.04869-1.6191-.04272-1.817.1193-.17778.14556-.21328.25832-.24215.76924-.0583 1.0323.22432 4.028.83214 8.8197.0916.72178.28094 2.3316.42084 3.5774.29548 2.6311.34685 2.7886 1.3458 4.1272.70065.9389.85802 1.3349.85558 2.1529-.002.80122-.24683 1.468-1.0564 2.8818-.75484 1.3182-1.0538 2.002-1.0561 2.4159-.002.35459.26216.82003.52665.92786.10488.04276 2.6291.12332 5.6094.17902s6.2378.12995 7.239.165c2.1544.07542 3.0093.05278 3.3152-.08779zm-38.378-.03937c7.9573-.13298 7.5266-.09964 7.8599-.6084.28662-.43744.19612-.96004-.41545-2.399-1.6319-3.8397-1.653-4.1144-.43912-5.7068.72177-.94681.96132-1.6209 1.1463-3.2255.1756-1.5229.44725-3.8291.87767-7.4507.3593-3.0233.57591-5.6454.50232-6.0809-.0464-.2747-.10498-.34836-.36401-.45778-.75635-.31947-5.8733.12522-15.712 1.3655-2.2612.28503-3.7036.43216-3.8164.38927-.0998-.03792-.25189-.1766-.33811-.30818-.15319-.2338-.15243-.2681.0334-1.5106.37232-2.4901.51192-3.9638.51455-5.4322.003-1.669-.0611-2.4354-.43559-5.2069-.25962-1.9215-.26457-2.0108-.12338-2.2263.0809-.12346.23391-.25749.34004-.29784.12861-.0489 1.6304.10773 4.5041.46974 7.8647.99077 12.447 1.4376 14.117 1.3766 1.1714-.0428 1.1917-.06849 1.2302-1.5612.0371-1.4357-.11946-5.5102-.28916-7.5261-.15115-1.7955-.31515-3.0576-.5538-4.2616-.31276-1.5779-.5475-2.0963-1.5371-3.3944-.72649-.95295-.98904-1.432-.99203-1.8101-.004-.55638-.42696-1.1724-1.0602-1.5454-.37472-.22076-2.135-.71814-3.2729-.92477-2.7273-.49525-5.816-.52382-8.4534-.07818-4.8365.81719-10.032 3.3085-12.683 6.082-2.1273 2.2252-3.0865 4.7232-3.0901 8.0472-.003 2.4588.48418 4.897 1.6479 8.2529.60088 1.7327 1.1489 3.0969 2.7309 6.7978 1.5904 3.7206 1.914 4.5626 2.7474 7.1482 1.3712 4.2547 2.2772 7.4592 2.8916 10.228.19793.89202.45097 1.7973.56801 2.032.32712.6561.83672 1.2703 1.319 1.5897.24173.16009.82749.54668 1.3017.85911 1.4676.96694 1.9589 1.6806 2.0352 2.9567.0514.85971-.13316 1.4079-.70265 2.0875-.54426.64948-.66348.94719-.53693 1.3408.17326.53884.36396.79429.71291.95494.18627.08575.35772.15606.381.15624.0233 0 3.3329-.05467 7.3547-.12188z"/>
</svg>
