<svg
        xmlns="http://www.w3.org/2000/svg"
        viewBox="0 0 148.50435 91.356735"
        class="h-12 w-auto text-white mr-2"
      >
        <title>VTES CHILE</title>
        <path
          d="M162.61656 166.28783c-2.71833-.0002-4.94233.007-4.94233.015s.11769.0875.26148.17622c.33147.20459.83731.68387 1.07797 1.02112.41308.57887.72182 1.4277.81752 2.24638.10879.93114.12712 2.90432.12712 13.83429 0 10.88476-.0183 12.87109-.12557 13.8281-.009.0813-.0201.16342-.0336.24546-.003.009-.005.0182-.006.0274-.006.0385-.0128.0771-.0196.11524-.11575.59725-.34018 1.1944-.62477 1.6583-.0473.0758-.0967.14966-.14831.22169-.25059.34258-.64786.72276-1.02681.98185l-.31419.21497h.0181c-.0111.009-.0179.0156-.0202.0191l-.00052.00052-.00052.00052v.00051c0 .011 4.93754.0148 10.97194.009l10.97106-.0109 1.19874-3.36517c.65909-1.85103 1.20842-3.3963 1.22112-3.4339.0001-.00029.00045-.00077.00051-.001.00003-.00025.00001-.001 0-.002v-.00104h-.00051v-.00052l-.00052-.00051h-.00052v-.00052h-.00051c-.00025-.00005-.001-.00048-.001-.00052-.0367-.001-.29868.15193-.62167.36536-2.04667 1.35244-4.44758 2.152-7.32203 2.43861-1.34873.13448-3.62333.12664-5.39451-.0191-.8356-.0688-2.63709-.28372-3.13314-.37362l-.26045-.047c-.0107-.24072-.019-.50718-.0258-.80512l-.0274-1.1839-.17828-.0351-.17777-.0351-.0124-.27906-.0124-.27957-.43511-.10335-.43512-.10335.41858-.45165c.23024-.24816.5161-.5577.6351-.68833l.21601-.23772.015-11.0231c.0154-11.55484.0115-11.32722.19999-12.13259.27489-1.17461.94871-2.12732 1.90427-2.69286l.19017-.11265zM185.55925 201.27792c0-.0106.12859-.10241.28575-.2041.98985-.64053 1.64492-1.70534 1.85101-3.00876.13869-.8772.14924-1.87738.14924-14.14594 0-12.26854-.0105-13.26872-.14924-14.14592-.2063-1.30473-.85917-2.36293-1.86159-3.01729l-.29633-.19344 6.66525-.0107c3.66589-.006 6.67733.004 6.69209.0212.0148.0175.0714.27953.12582.58221.0544.30269.11083.56444.1253.58169.0145.0172.25123-.2447.52612-.58208l.49982-.61344 1.78447-.00025c1.83281-.00026 2.28877-.0308 2.80046-.18788.11642-.0357.23548-.0652.26458-.0654.0419-.00028.0529.63712.0529 3.04754 0 1.6764-.0114 3.048-.0253 3.048s-.14483-.10954-.29098-.24342c-.58139-.53258-1.33535-1.00617-2.03326-1.27715-1.1534-.44785-2.40621-.58217-5.03767-.5401-1.83498.0293-3.25204.12599-4.26525.29093l-.28593.0465.0108 4.91501.0108 4.91501 3.53483.0124c2.25061.008 3.70677-.004 4.00809-.0323.40469-.0382.94455-.16084 1.20949-.2748.0701-.0302.0741.11591.0741 2.73359v2.76545l-.24342-.23623c-.54559-.52948-1.22087-.84484-2.20024-1.02749-.65151-.12151-1.63669-.15655-4.03334-.14346l-2.3495.0128V196.82969l.28951.0525c.49606.0899 2.29766.30457 3.13326.37333 1.77118.14576 4.0455.15398 5.39423.0195 2.87446-.28661 5.27557-1.08633 7.32224-2.43877.3564-.2355.63762-.39743.62493-.35983-.0127.0376-.56231 1.58284-1.22139 3.43387l-1.19834 3.3655-10.97164.0107c-6.0344.006-10.97164.002-10.97164-.009zM157.65667 152.21489c0-.0106.12859-.10241.28575-.2041.98985-.64053 1.64492-1.70534 1.85101-3.00876.13869-.8772.14924-1.87738.14924-14.14594 0-12.26854-.0105-13.26872-.14924-14.14592-.2063-1.30473-.85917-2.36293-1.86159-3.01729l-.29633-.19344 6.66525-.0107c3.66589-.006 6.67733.004 6.69209.0212.0148.0175.0714.27954.12582.58222.0544.30268.11083.56444.1253.58168.0145.0172.25123-.24469.52612-.58208l.49982-.61343 1.78447-.00026c1.83281-.00025 2.28877-.0308 2.80046-.18787.11642-.0357.23548-.0652.26458-.0654.0419-.00029.0529.63711.0529 3.04754 0 1.6764-.0114 3.048-.0253 3.048s-.14483-.10954-.29098-.24342c-.58139-.53259-1.33535-1.00617-2.03326-1.27716-1.1534-.44785-2.40621-.58216-5.03767-.54009-1.83498.0293-3.25204.12599-4.26525.29092l-.28593.0465.0108 4.91502.0108 4.915 3.53483.0124c2.25061.008 3.70677-.004 4.00809-.0323.40469-.0382.94455-.16084 1.20949-.2748.0701-.0302.0741.11591.0741 2.73359v2.76545l-.24342-.23623c-.54559-.52948-1.22087-.84484-2.20024-1.02749-.65151-.12151-1.63669-.15655-4.03334-.14346l-2.3495.0128V147.76666l.28951.0525c.49606.0899 2.29766.30457 3.13326.37333 1.77118.14576 4.0455.15398 5.39423.0195 2.87446-.28661 5.27557-1.08633 7.32224-2.43877.3564-.2355.63762-.39743.62493-.35983-.0127.0376-.56231 1.58284-1.22139 3.43387l-1.19834 3.3655-10.97164.0107c-6.0344.006-10.97164.002-10.97164-.009zM109.71965 166.28782l.19017.11317c.95556.56554 1.62938 1.51825 1.90427 2.69286.18848.80537.19999 12.13261.19999 12.13261l.007 5.34127.008 5.68183.21652.23719c.11899.13063.40436.44068.63459.68885l.41858.45113-.4346.10387-.81649.73174-.0269 1.18442c-.0408 1.77512-.13522 2.42944-.46302 3.21686-.29905.71834-.94804 1.48428-1.5689 1.85157l-.26768.15813h9.8981l-.31419-.21498v.00052c-.3849-.26315-.78889-.65114-1.0387-.99787-.41448-.5753-.72978-1.44126-.82062-2.25206-.0967-.86326-.12074-2.56397-.12454-10.87789 1.755-.004 3.96364-.005 6.75928-.005 2.77002 0 4.96447.001 6.71277.005-.004 8.35498-.0279 10.04429-.12609 10.88461-.0957.81868-.40444 1.66751-.81752 2.24638-.24066.33725-.74701.81601-1.07849 1.02061-.14379.0888-.26097.1684-.26097.17673 0 .008 2.22401.0147 4.94234.0145h4.94233l-.19069-.11266c-.95556-.56554-1.62887-1.51825-1.90376-2.69286-.18497-.79041-.19947-11.5011-.19947-11.5011l-.007-5.3759-.008-6.2787-.83509-1.48104.43512-.10387.0124-.27906.0124-.27905.17828-.0351.17777-.0351.0274-1.18391c.0408-1.77512.13469-2.42943.4625-3.21685.29904-.71834.94855-1.4848 1.56942-1.85209l.26716-.15813h-9.89758l.31419.21498c.3849.26315.78838.65062 1.03818.99735.41448.5753.73029 1.44126.82114 2.25206.0989.88308.1221 2.64271.12505 11.46133-1.22709.002-2.66661.004-4.3589.006l-9.11418.0124c.003-8.87647.0261-10.62602.12661-11.48613.0957-.81868.40445-1.66699.81752-2.24586.24066-.33725.74649-.81652 1.07797-1.02112.14379-.0888.26149-.16789.26149-.17622 0-.008-2.22401-.0152-4.94234-.015zM143.22969 200.65882c.3849-.26316.78859-.65106 1.0384-.9978.41447-.5753.73011-1.4411.82096-2.25191.10723-.957.12522-2.9437.12522-13.82847 0-10.92997-.0181-12.90323-.12689-13.83437-.0957-.81868-.40456-1.66732-.81763-2.24619-.24067-.33726-.74652-.81634-1.078-1.02094-.14379-.0888-.26144-.16818-.26144-.17651 0-.008 2.22409-.015 4.94242-.0148l4.94242.00028-.1905.11274c-.95556.56554-1.6292 1.51823-1.90409 2.69284-.18848.80537-.18472.57777-.20016 12.13261l-.0147 11.02316-.21636.23751c-.119.13062-.40473.44055-.63497.68872l-.41861.45121.43504.10358.43504.10358.0125.27917.0125.27917.17803.0351.17803.0351.0272 1.18406c.0408 1.77512.1349 2.42948.4627 3.2169.29904.71833.94832 1.48458 1.56919 1.85187l.26731.15813h-9.89798l.31445-.21499zM94.916251 153.28355c-2.35422-1.58644-3.68754-2.69984-4.22604-3.52901-.41799-.64361-1.01844-1.89978-1.51766-3.175-.1276-.32596-2.01903-5.41231-4.203172-11.303-4.40372-11.87696-4.397398-11.86005-5.024146-13.44083-.86636-2.18514-1.168078-2.68155-2.334819-3.84144l-.521953-.5189h7.658598l.0208.62442c.0185.5569.0398.69766.19672 1.30175.0968.37253.30681 1.06786.466752 1.54517.32543.97116 9.09472 24.89416 9.14448 24.94652.0174.0183.46997-1.11512 1.00563-2.51883s1.93302-5.06679 3.10524-8.14019l2.131309-5.588.58462-.18791c.32153-.10334.58461-.20087.58461-.21672 0-.0159-.13335-.24758-.29633-.51494-.16299-.26736-.29633-.50971-.29633-.53854 0-.0288.23951-.68411.53225-1.45616 1.75276-4.62256 2.06744-6.47224 1.34061-7.88004-.21085-.4084-.76444-.95795-1.19553-1.18681l-.3175-.16855 3.97558-.0108c2.18658-.006 3.98193-.005 3.98968.003.0165.0165-14.037979 36.18767-14.078669 36.23344-.0151.017-.34124-.18051-.72471-.43891zM127.39322 117.49128l-2.03967.002-.62838 1.09451-.62839-1.09326-1.356-.003-.58704 1.09646-.57051-1.09646-5.16195.0107-1.19838 3.36516c-.65907 1.85102-1.20842 3.3963-1.22112 3.4339v.00052h-.00051v.00052c-.00003.00024-.00001.001 0 .001v.00103h.00051v.00052l.00052.00051h.00052v.00052h.00051l.00052.00052c.0328.004.29671-.14995.6227-.36535 2.04666-1.35244 4.44809-2.15201 7.32255-2.43862 1.34873-.13449 3.62281-.12664 5.39399.0191.8356.0688 2.63708.28373 3.13314.37363l.19585.0351c.092 4.41124.092 12.54742.092 12.54742v9.39616l.01 2.68627-.01.70503c-.0767.83113-.051 2.19839-.48177 3.18019-.31471.71719-1.08661 1.56876-1.47134 1.83191l-.31419.21446h9.8981l-.26768-.15813c-.62087-.36729-1.26986-1.13324-1.5689-1.85157-.3278-.78742-.4217-1.44174-.4625-3.21686l-.016-.69298v-.001c.00017-.68267-.00004-1.5822 0-2.69492l.007-.008s-.002.002-.007.006c.00004-1.48345.0264-3.36926.0257-5.60134v-3.8218c.0263-8.163-.0213-11.1114.0254-12.50886l.20929-.0382c.49606-.0899 2.29754-.30434 3.13314-.3731 1.77118-.14576 4.04525-.15412 5.39398-.0196 2.87446.28661 5.27588 1.08669 7.32255 2.43913.326.2154.5904.36892.62322.36483l.00052-.00052h.00052v-.00051h.00051v-.00052l.00052-.00052v-.00206c-.00012-.00033-.00049-.00089-.00052-.001-.0127-.0376-.56203-1.58287-1.22111-3.4339l-1.19833-3.36571-10.97194-.0103c-.36676-.00036-.72948-.00077-1.08727-.001-.41181-.01-5.17607-.0134-10.94248-.008zM205.80048 117.48874c-5.38145-.0381-9.11387-.018-9.87898.0527-3.43275.31708-5.82274 1.32287-7.7494 3.26182-.9703.97648-1.76675 2.24943-2.17196 3.47214-.3521 1.06246-.462 2.1843-.46199 3.33691 0 1.15261.1099 2.32891.46199 3.39136.40521 1.22271 1.20167 2.49566 2.17196 3.47214 4.63077 3.82705 12.36295 2.94809 14.64148 4.23954.52099.29529.96292.76416 1.2516 1.28884.34377.62481.49568 1.0282.49868 2.08049-.003 1.05229-.0584 1.45668-.30024 2.17971-.68739 2.05525-2.41273 3.49297-4.84673 4.03852-.88522.19841-1.88433.23394-2.83084.22427-1.00297-.0102-1.92982-.02-2.84582-.21239-.0256-.01-.67283.9648-.67283.9648h-.00103v-.00052h-.00052l-.00051-.00051c-.0262-.0407.0334-1.06731.0232-1.08211-2.78415-.30365-4.92719-1.09715-6.92516-2.41742-.32599-.2154-.59039-.36892-.62322-.36484l-.00052.00052h-.00051v.00052h-.00052v.00051l-.00052.00052V145.41884h.00052v.00052c.0127.0376.56203 1.58287 1.22111 3.4339l1.19838 3.36569 2.34714.0165c5.38146.0381 9.11388.018 9.87899-.0527 3.43275-.31708 5.82273-1.32286 7.74939-3.26181.9703-.97648 1.76675-2.24943 2.17196-3.47214.3521-1.06245.46191-2.21153.46191-3.36414 0-1.15261-.10982-2.30168-.46191-3.36413-.40521-1.22271-1.20166-2.49566-2.17196-3.47214-3.43091-3.4528-10.61223-2.27145-14.51251-4.03454-.6399-.28926-1.24722-.77572-1.57901-1.39464-.34653-.6464-.30024-1.44628-.30024-2.17971s.0584-1.45669.30024-2.17971c.68739-2.05525 2.41273-3.49296 4.84673-4.03852.88522-.19841 1.88433-.23393 2.83084-.22427 1.00297.0102 1.92983.0201 2.84582.21239.0256.01.6351-.98392.6351-.98392.006-.001.0193 1.08762.0165 1.10226 2.78415.30365 4.92719 1.09716 6.92516 2.41742.32341.21371.58601.36644.62218.36484.00026-.00004.00081.00005.001 0l.00051-.00052h.00052v-.00052h.00052v-.00051l.00051-.00052V124.30534h-.00051v-.00052c-.0127-.0376-.56204-1.58287-1.22112-3.4339l-1.19838-3.36569z"
          style="stroke-width:.282222"
          transform="translate(-70.098739 -109.99806)"></path>
        <path
          d="m70.098739 109.99964 63.158161-.00069c42.92806-.00056 78.05103.0116 78.05103.0269 0 .0153-.12128.32005-.26951.67733l-.26952.6496h-85.94709l-54.170884.00001zm143.020021 1.27901c.009-.0408.0552-.27411.10212-.51859.0468-.24447.0995-.51594.11722-.60325l.0323-.15875H217.32544l.62866.57478c.48588.44426.63097.59807.63898.67733l.01.10256h-2.75076c-2.60444 0-2.74984-.004-2.73372-.0741z"
          style="stroke-width:.248023"
          transform="translate(-70.098739 -109.99806)"></path>
        <path
          d="M70.09874 159.75882v-.33842l.43193-.33892.43193-.33891 14.325295.003c8.436894.002 14.303087.0184 14.271279.0407-.02972.0208-.454065.20458-.942996.40839l-.888945.37056-1.123384-.15897-1.123396-.15897-.397285.42504-.397262.42504H70.09874Zm32.6499-.33196-.5657-.66313 42.83523-.0106 42.83522-.0106.88778.56713c.48825.31191.95461.61516 1.03633.67387l.14859.10675h-86.61176l-.56569-.66313zm88.25943.63368c.0139-.0202.31222-.32498.66244-.67733l.63679-.64064h6.03439l.76675.48097.76675.48097 1.91441-.47978 1.91441-.47978 7.44953-.001 7.44953-.001v1.35467h-13.81033c-7.79357 0-13.79916-.016-13.78467-.0367z"
          style="stroke-width:.225452"
          transform="translate(-70.098739 -109.99806)"></path>
        <path
          d="M105.75248 165.8061c-.98662.54419-1.8898.48163-1.8898.48163h-3.12849s-2.809274-.0267-4.263827 0c-3.813092.07-7.467919.9242-10.059851 3.32278-.861939.79764-1.463769 1.50704-2.132602 2.48496.275253.33066.775444 1.31262.775444 1.31262s-1.028969-.20917-1.457595-.37062c-1.810726 2.91518-2.470129 6.43737-2.495001 10.61611-.03017 5.06897 2.049193 10.89378 5.309756 13.89707 3.260563 3.00329 8.303426 3.32278 10.068117 3.32278H103.86268s.97435-.00017 1.8898.48147c-.0558-2.94699 0-9.31712 0-9.31712-.88706 1.31118-1.81336 2.25352-2.2676 2.69628-3.31603 1.59169-10.907531 1.50919-14.185695-1.74925-4.628072-4.60023-4.061641-15.2631.851111-19.55798 3.12099-2.72847 10.012914-3.43757 13.334584-1.30121.45424.44276 1.3805 1.40649 2.26756 2.71767-.0395-2.94416.00004-9.03719.00004-9.03719z"
          style="stroke-width:.37908"
          transform="translate(-72.608759 -109.9981664)"></path>
      </svg>